<svg class="typst-doc" viewBox="0 0 327.216 101.638" width="327.216pt" height="101.638pt" xmlns="http://www.w3.org/2000/svg" xmlns:xlink="http://www.w3.org/1999/xlink" xmlns:h5="http://www.w3.org/1999/xhtml">
    <g>
        <g class="typst-group" transform="matrix(1 0 0 1 6 6)">
            <g>
                <g class="typst-group" transform="matrix(1 0 0 1 109.741 0)">
                    <g>
                        <g class="typst-text" transform="matrix(1 0 0 -1 0 52)">
                            <use xlink:href="#g5101CF85426830B0AC2085C143D9C660" x="0" y="0" fill="#1a658f" fill-rule="nonzero"/>
                        </g>
                        <g class="typst-group" transform="matrix(1 0 0 1 41.547999999999995 0)">
                            <g>
                                <g class="typst-group">
                                    <g>
                                        <path class="typst-shape" fill="#41b6e6" fill-rule="nonzero" transform="matrix(1 0 -0.2679491924311227 1 7.100653599424751 0)" d="M 0 0m 0 3 c 0 -1.6568543 1.3431457 -3 3 -3 h 5 c 1.6568546 0 3 1.3431457 3 3 v 47 c 0 1.6568527 -1.3431454 3 -3 3 h -5 c -1.6568543 0 -3 -1.3431473 -3 -3 Z "/>
                                    </g>
                                </g>
                            </g>
                        </g>
                        <g class="typst-text" transform="matrix(1 0 0 -1 56.547999999999995 52)">
                            <use xlink:href="#g12C85AEEFB3DE2324E23FD39E2B92099" x="0" y="0" fill="#1a658f" fill-rule="nonzero"/>
                        </g>
                    </g>
                </g>
                <g class="typst-group" transform="matrix(1 0 0 1 0 67)">
                    <g>
                        <g class="typst-text" transform="matrix(1 0 0 -1 0 22.638)">
                            <use xlink:href="#gA2DBFCE3E37C368C914E39D8BD3C7B84" x="0" y="0" fill="#1a658f" fill-rule="nonzero"/>
                            <use xlink:href="#g537170318DE29AF0C708371C939F548F" x="20.691" y="0" fill="#1a658f" fill-rule="nonzero"/>
                            <use xlink:href="#g3B2C8CEB12BCD6FE13CFA67F31849A1C" x="44.946" y="0" fill="#1a658f" fill-rule="nonzero"/>
                            <use xlink:href="#gF23E48114C8E22B00C80ACCC793062AD" x="68.475" y="0" fill="#1a658f" fill-rule="nonzero"/>
                            <use xlink:href="#gA21A4834F3B51C3E4700F08CBD9A5357" x="92.169" y="0" fill="#1a658f" fill-rule="nonzero"/>
                            <use xlink:href="#gB27C483FA70E5BFA5947394D4850192E" x="113.487" y="0" fill="#1a658f" fill-rule="nonzero"/>
                            <use xlink:href="#gADFA091067B04F48A9B46E60BC164BE5" x="123.585" y="0" fill="#1a658f" fill-rule="nonzero"/>
                            <use xlink:href="#gBB53E38F2F4426FC5AB557437448C394" x="149.91899999999998" y="0" fill="#1a658f" fill-rule="nonzero"/>
                            <use xlink:href="#g3B2C8CEB12BCD6FE13CFA67F31849A1C" x="174.96599999999998" y="0" fill="#1a658f" fill-rule="nonzero"/>
                            <use xlink:href="#g947890514951FF377B5F34EAA432E97B" x="199.02299999999997" y="0" fill="#1a658f" fill-rule="nonzero"/>
                            <use xlink:href="#gCCA512AC61DD92E27164B69358853F87" x="214.46699999999996" y="0" fill="#1a658f" fill-rule="nonzero"/>
                            <use xlink:href="#gA21A4834F3B51C3E4700F08CBD9A5357" x="237.03899999999996" y="0" fill="#1a658f" fill-rule="nonzero"/>
                            <use xlink:href="#gB27C483FA70E5BFA5947394D4850192E" x="258.35699999999997" y="0" fill="#1a658f" fill-rule="nonzero"/>
                            <use xlink:href="#gF23E48114C8E22B00C80ACCC793062AD" x="268.455" y="0" fill="#1a658f" fill-rule="nonzero"/>
                            <use xlink:href="#gD94BD86E6272AB084FD3CEA1E478F418" x="292.80899999999997" y="0" fill="#1a658f" fill-rule="nonzero"/>
                        </g>
                    </g>
                </g>
            </g>
        </g>
    </g>
    <defs id="glyph">
        <symbol id="g5101CF85426830B0AC2085C143D9C660" overflow="visible">
            <path d="M 0 0m 6.3 0 v 7.056 h 10.332 v 25.515 h -10.395 v 5.292 q 2.079 0.18900299 4.8195004 0.97650146 q 2.7404995 0.7874985 5.5125 1.9529991 q 2.7719994 1.1655006 4.9769993 2.4885025 h 3.9060001 v -36.225002 h 9.639 v -7.056 h -28.791 Z "/>
        </symbol>
        <symbol id="g12C85AEEFB3DE2324E23FD39E2B92099" overflow="visible">
            <path d="M 0 0m 4.788 0 v 43.218002 h 31.878 v -7.686001 h -22.491001 v -10.710001 h 20.097 v -7.623001 h -20.097 v -17.199 h -9.387 Z "/>
        </symbol>
        <symbol id="gA2DBFCE3E37C368C914E39D8BD3C7B84" overflow="visible">
            <path d="M 0 0m 2.508 0 v 22.638 h 16.698 v -4.026001 h -11.780999 v -5.6099997 h 10.526999 v -3.993 h -10.526999 v -9.009 h -4.9170003 Z "/>
        </symbol>
        <symbol id="g537170318DE29AF0C708371C939F548F" overflow="visible">
            <path d="M 0 0m 2.508 0 v 22.638 h 12.408001 q 2.5079994 0 4.1744995 -0.89100075 q 1.6665001 -0.89100075 2.4915009 -2.491499 q 0.82499886 -1.6005001 0.82499886 -3.6795006 q 0 -2.2110004 -0.9899998 -3.9105005 q -0.9899998 -1.6995001 -2.8710003 -2.5904999 l 4.620001 -9.075 h -5.4449997 l -3.993001 8.25 h -6.3029995 v -8.25 h -4.9170003 Z m 4.9170003 12.144 h 6.8309994 q 1.4850006 0 2.3100004 0.90750027 q 0.82500076 0.9074993 0.82500076 2.4585 q 0 0.9899998 -0.36300087 1.6994991 q -0.36300087 0.70950127 -1.0559998 1.0725002 q -0.69299984 0.36300087 -1.7160006 0.36300087 h -6.8309994 v -6.5010004 Z "/>
        </symbol>
        <symbol id="g3B2C8CEB12BCD6FE13CFA67F31849A1C" overflow="visible">
            <path d="M 0 0m 0.198 0 l 8.712 22.638 h 6.0720005 l 8.712 -22.638 h -5.3129997 l -1.6170006 4.455 h -9.867001 l -1.6170001 -4.455 h -5.082 Z m 8.118 8.415 h 7.0290003 l -2.0130005 5.5769997 q -0.13199997 0.36299992 -0.31349945 0.8745003 q -0.18150043 0.51150036 -0.3795004 1.1384993 q -0.19799995 0.6270008 -0.3795004 1.2375011 q -0.18149948 0.61050034 -0.34649944 1.1054993 h -0.19799995 q -0.16499996 -0.6269989 -0.4289999 -1.4685001 q -0.26399994 -0.8414993 -0.5279999 -1.6169996 q -0.2640009 -0.7755003 -0.42900085 -1.2705002 l -2.0129995 -5.5769997 Z "/>
        </symbol>
        <symbol id="gF23E48114C8E22B00C80ACCC793062AD" overflow="visible">
            <path d="M 0 0m 12.639 -0.396 q -3.5310001 0 -6.039 1.2375 q -2.508 1.2375 -3.8114998 3.8444998 q -1.3035 2.6069999 -1.3035 6.6330004 q 0 5.9400005 2.9204998 8.827499 q 2.9204998 2.8875008 8.2335 2.8875008 q 2.9040003 0 5.2140007 -0.9899998 q 2.3099995 -0.9900017 3.6464996 -2.9700012 q 1.3365002 -1.9799995 1.3365002 -4.983 h -4.950001 q 0 1.5840006 -0.6434994 2.6730003 q -0.6435013 1.0890007 -1.8150005 1.6665001 q -1.1715002 0.5774994 -2.7224998 0.5774994 q -2.1119995 0 -3.4814997 -0.82499886 q -1.3695002 -0.82500076 -2.0130005 -2.4255009 q -0.64349985 -1.6005001 -0.64349985 -3.9104996 v -1.0229998 q 0 -2.3760004 0.65999985 -3.9765005 q 0.6600003 -1.6005001 1.9965005 -2.409 q 1.3364992 -0.80850005 3.4484997 -0.80850005 q 1.6499996 0 2.8710003 0.5610001 q 1.2209997 0.5609999 1.8809996 1.6500001 q 0.65999985 1.0889997 0.65999985 2.6729999 h 4.752001 q 0 -3.0029998 -1.3035011 -4.983 q -1.3034992 -1.9799999 -3.6134987 -2.9534998 q -2.3100004 -0.9735 -5.2800007 -0.9735 Z "/>
        </symbol>
        <symbol id="gA21A4834F3B51C3E4700F08CBD9A5357" overflow="visible">
            <path d="M 0 0m 8.085 0 v 18.513 h -7.26 v 4.125 h 19.502998 v -4.125 h -7.2929993 v -18.513 h -4.95 Z "/>
        </symbol>
        <symbol id="gB27C483FA70E5BFA5947394D4850192E" overflow="visible">
            <path d="M 0 0m 2.508 0 v 22.638 h 4.9170003 v -22.638 h -4.9170003 Z "/>
        </symbol>
        <symbol id="gADFA091067B04F48A9B46E60BC164BE5" overflow="visible">
            <path d="M 0 0m 13.068 -0.396 q -3.5970001 0 -6.204 1.287 q -2.6069999 1.287 -3.9929998 3.8939998 q -1.386 2.6070004 -1.386 6.5340004 q 0 3.993 1.386 6.5835 q 1.3859999 2.5904999 3.9929998 3.861 q 2.6069999 1.2705002 6.204 1.2705002 q 3.6629992 0 6.253501 -1.2705002 q 2.5904999 -1.2705002 3.9764996 -3.861 q 1.3859997 -2.5904999 1.3859997 -6.5835 q 0 -3.927 -1.3859997 -6.5340004 q -1.3859997 -2.6069999 -3.9764996 -3.8939998 q -2.5905018 -1.287 -6.253501 -1.287 Z m 0 4.026 q 1.6169996 0 2.8380003 0.46200013 q 1.2210007 0.4619999 2.0459995 1.3860002 q 0.82500076 0.9239998 1.2539997 2.2605 q 0.42900085 1.3364997 0.42900085 3.0525002 v 1.0229998 q 0 1.7489996 -0.42900085 3.1020002 q -0.42899895 1.3529987 -1.2539997 2.2605 q -0.82499886 0.9074993 -2.0459995 1.3694992 q -1.2210007 0.4619999 -2.8380003 0.4619999 q -1.5839996 0 -2.8050003 -0.4619999 q -1.2209997 -0.4619999 -2.0459995 -1.3694992 q -0.8249998 -0.9075012 -1.2375002 -2.2605 q -0.4124999 -1.3530006 -0.4124999 -3.1020002 v -1.0229998 q 0 -1.7160006 0.4124999 -3.0525002 q 0.41250038 -1.3365002 1.2375002 -2.2605 q 0.8249998 -0.92400026 2.0459995 -1.3860002 q 1.2210007 -0.46200013 2.8050003 -0.46200013 Z "/>
        </symbol>
        <symbol id="gBB53E38F2F4426FC5AB557437448C394" overflow="visible">
            <path d="M 0 0m 2.508 0 v 22.638 h 4.521 l 9.108 -12.210001 q 0.19799995 -0.23099995 0.49500084 -0.6434994 q 0.29700089 -0.41250038 0.5610008 -0.8085003 q 0.26399994 -0.3959999 0.36299896 -0.62699986 h 0.16500092 q 0 0.5609999 0 1.1055002 q 0 0.5444994 0 0.9734993 v 12.210001 h 4.653 v -22.638 h -4.521 l -9.306001 12.507 q -0.32999992 0.4619999 -0.69299984 1.0229998 q -0.36299992 0.5609999 -0.52800035 0.8579998 h -0.16499996 q 0 -0.4949999 0 -0.9734993 q 0 -0.47850037 0 -0.90750027 v -12.507 h -4.653 Z "/>
        </symbol>
        <symbol id="g947890514951FF377B5F34EAA432E97B" overflow="visible">
            <path d="M 0 0m 2.508 0 v 22.638 h 4.9170003 v -18.447 h 11.418 v -4.191 h -16.335001 Z "/>
        </symbol>
        <symbol id="gCCA512AC61DD92E27164B69358853F87" overflow="visible">
            <path d="M 0 0m 9.075 0 v 9.108 l -8.778 13.530001 h 5.709 l 5.61 -9.108001 h 0.16499996 l 5.5769997 9.108001 h 5.3789997 l -8.712 -13.530001 v -9.108 h -4.95 Z "/>
        </symbol>
        <symbol id="gD94BD86E6272AB084FD3CEA1E478F418" overflow="visible">
            <path d="M 0 0m 11.319 -0.396 q -1.9800005 0 -3.762 0.396 q -1.7820001 0.396 -3.1515002 1.2705 q -1.3694999 0.87450004 -2.145 2.211 q -0.77549994 1.3364999 -0.77549994 3.2505 q 0 0.16499996 0 0.34649992 q 0 0.18149996 0.032999992 0.28049994 h 4.884 q -0.032999992 -0.09899998 -0.032999992 -0.26399994 q 0 -0.16499996 0 -0.29699993 q 0 -1.0559998 0.57749987 -1.7820001 q 0.57750034 -0.72599983 1.6995001 -1.0889997 q 1.1219997 -0.36300015 2.6070004 -0.36300015 q 0.9569998 0 1.6995001 0.11549997 q 0.74249935 0.11550021 1.3199997 0.33000016 q 0.57750034 0.21449995 0.9569998 0.5114999 q 0.3795004 0.29699993 0.5609999 0.69299984 q 0.18150043 0.3960004 0.18150043 0.8910003 q 0 0.8909998 -0.57750034 1.4520001 q -0.5774994 0.5609999 -1.5839996 0.9569998 q -1.0065002 0.3959999 -2.2605 0.72599983 q -1.2540007 0.32999992 -2.5740004 0.6765003 q -1.3199997 0.34649944 -2.574 0.8579998 q -1.2540002 0.51150036 -2.244 1.2375002 q -0.99 0.72599983 -1.5840001 1.8479996 q -0.59399986 1.1220007 -0.59399986 2.7060003 q 0 1.6830006 0.7095001 2.9039993 q 0.70949984 1.2210007 1.9964998 2.0130005 q 1.2870002 0.7919998 2.9700003 1.1714993 q 1.6829996 0.37950134 3.663 0.37950134 q 1.8479996 0 3.4980001 -0.37950134 q 1.6499987 -0.37949944 2.9040003 -1.2044983 q 1.2539997 -0.82500076 1.9634991 -2.0790005 q 0.70949936 -1.2539997 0.70949936 -2.9700012 v -0.3959999 h -4.784999 v 0.26399994 q 0 0.89100075 -0.5279999 1.5180016 q -0.52800083 0.6269989 -1.4850006 0.9899998 q -0.9569998 0.36299896 -2.2439995 0.36299896 q -1.3860006 0 -2.3595 -0.26399994 q -0.97350025 -0.26399994 -1.4850001 -0.77549934 q -0.51150036 -0.5114994 -0.51150036 -1.2045002 q 0 -0.7919998 0.57750034 -1.3035002 q 0.57749987 -0.5114994 1.5840001 -0.8909998 q 1.0064993 -0.3795004 2.2605 -0.6765003 q 1.2539997 -0.29699993 2.5739994 -0.65999985 q 1.3200006 -0.36299992 2.5740004 -0.8579998 q 1.2539997 -0.4949999 2.2439995 -1.2375002 q 0.9899998 -0.7425003 1.5839996 -1.8315 q 0.59399986 -1.0889997 0.59399986 -2.6069999 q 0 -2.6069999 -1.2539997 -4.191 q -1.2539997 -1.5839999 -3.4319992 -2.31 q -2.1780005 -0.72599995 -4.983 -0.72599995 Z "/>
        </symbol>
    </defs>
</svg>
